<svg id="svg" version="1.1" width="400" height="205.3648068669528" viewBox="0 0 400 205.3648068669528" xmlns="http://www.w3.org/2000/svg" xmlns:xlink="http://www.w3.org/1999/xlink"><g id="svgg"><path id="path0" d="M397.021 0.413 C 396.569 0.639,395.783 1.236,395.275 1.738 C 394.025 2.973,393.478 3.584,393.772 3.417 C 393.907 3.341,393.661 3.812,393.226 4.464 C 392.451 5.626,391.146 8.648,390.275 11.299 C 390.034 12.034,389.789 12.681,389.731 12.738 C 389.673 12.794,389.592 13.071,389.553 13.354 C 389.513 13.636,389.402 13.916,389.307 13.976 C 389.211 14.035,389.079 14.394,389.012 14.774 C 388.945 15.154,388.786 15.660,388.658 15.899 C 388.530 16.138,388.447 16.333,388.474 16.333 C 388.500 16.333,388.476 16.471,388.420 16.641 C 388.176 17.378,386.000 24.316,385.451 26.105 C 385.119 27.186,384.753 28.249,384.638 28.468 C 384.522 28.686,383.946 30.390,383.358 32.255 C 381.717 37.453,381.557 37.869,381.537 36.980 C 381.502 35.446,380.163 32.160,379.217 31.286 C 377.808 29.983,374.937 29.918,372.337 31.131 C 371.981 31.297,371.599 31.433,371.489 31.433 C 371.378 31.433,371.173 31.572,371.032 31.741 C 370.892 31.911,370.600 32.049,370.384 32.049 C 370.169 32.049,369.939 32.188,369.874 32.357 C 369.809 32.527,369.667 32.666,369.558 32.666 C 369.326 32.666,369.364 32.633,366.769 35.028 C 363.482 38.061,359.857 42.839,357.553 47.176 C 357.021 48.178,356.418 49.240,356.213 49.535 C 356.009 49.831,355.901 50.131,355.973 50.203 C 356.045 50.275,355.996 50.334,355.864 50.334 C 355.732 50.334,355.635 50.403,355.648 50.488 C 355.717 50.922,355.599 51.164,355.384 51.031 C 355.224 50.933,355.186 50.993,355.269 51.211 C 355.339 51.392,355.329 51.569,355.247 51.605 C 355.022 51.703,353.513 54.892,352.544 57.318 C 352.071 58.505,351.622 59.522,351.548 59.578 C 351.473 59.635,351.403 59.797,351.392 59.938 C 351.328 60.736,351.291 60.824,351.078 60.692 C 350.937 60.605,350.883 60.661,350.941 60.834 C 350.993 60.991,350.820 61.549,350.556 62.074 C 350.293 62.599,350.077 63.140,350.077 63.276 C 350.077 63.412,349.946 63.814,349.786 64.170 C 349.312 65.226,346.249 75.132,346.092 76.117 C 346.074 76.230,345.988 76.437,345.901 76.576 C 345.814 76.715,345.612 77.409,345.452 78.117 C 344.727 81.323,344.557 82.128,344.439 82.897 C 344.370 83.349,344.223 84.273,344.112 84.951 C 343.191 90.575,343.423 96.312,344.683 99.076 C 344.980 99.725,345.297 100.257,345.390 100.257 C 345.482 100.257,345.557 100.389,345.557 100.551 C 345.557 100.713,345.744 100.905,345.971 100.977 C 346.199 101.049,346.331 101.196,346.264 101.304 C 346.197 101.412,346.219 101.482,346.312 101.461 C 346.406 101.440,346.759 101.549,347.098 101.703 C 347.868 102.053,350.574 102.041,351.412 101.685 C 351.751 101.541,352.089 101.435,352.163 101.450 C 352.237 101.464,352.410 101.341,352.548 101.175 C 352.685 101.009,352.902 100.873,353.030 100.872 C 353.673 100.871,359.117 96.576,359.117 96.070 C 359.117 95.949,360.463 94.404,361.310 93.554 C 361.668 93.193,361.914 92.850,361.855 92.791 C 361.796 92.732,361.941 92.563,362.178 92.415 C 362.415 92.267,362.609 92.026,362.609 91.880 C 362.609 91.735,362.748 91.562,362.917 91.497 C 363.087 91.432,363.225 91.282,363.225 91.163 C 363.225 91.044,363.613 90.430,364.088 89.798 C 365.169 88.358,365.396 88.111,365.085 88.714 C 364.951 88.975,364.807 89.345,364.766 89.536 C 364.725 89.726,364.502 90.621,364.270 91.525 C 363.393 94.942,363.887 97.791,365.356 97.791 C 366.369 97.791,367.378 97.392,367.892 96.786 C 368.142 96.492,368.350 96.334,368.354 96.435 C 368.362 96.636,368.920 95.899,370.203 93.991 C 370.658 93.313,371.137 92.606,371.267 92.420 C 371.397 92.234,371.480 92.049,371.452 92.009 C 371.424 91.969,371.688 91.414,372.038 90.775 C 372.389 90.136,372.676 89.502,372.676 89.368 C 372.676 89.233,372.806 88.831,372.966 88.475 C 373.272 87.791,374.324 84.551,375.244 81.459 C 375.546 80.442,375.871 79.529,375.965 79.431 C 376.059 79.332,376.082 79.109,376.015 78.935 C 375.935 78.727,375.976 78.669,376.134 78.766 C 376.269 78.850,376.381 78.797,376.389 78.646 C 376.426 78.002,376.621 77.262,377.083 76.014 C 377.355 75.280,377.821 73.847,378.119 72.830 C 378.417 71.813,378.877 70.334,379.143 69.543 C 379.408 68.752,379.920 67.134,380.282 65.948 C 380.643 64.761,380.995 63.698,381.064 63.585 C 381.134 63.472,381.206 63.274,381.226 63.144 C 381.246 63.015,381.542 62.136,381.883 61.192 C 382.225 60.248,382.649 59.014,382.826 58.449 C 383.003 57.884,383.698 55.665,384.371 53.518 C 385.043 51.371,385.656 49.360,385.732 49.048 C 385.808 48.736,385.948 48.433,386.044 48.374 C 386.139 48.315,386.165 48.131,386.102 47.965 C 386.038 47.799,386.098 47.663,386.235 47.663 C 386.372 47.663,386.436 47.536,386.376 47.380 C 386.316 47.224,386.341 47.016,386.432 46.918 C 386.576 46.761,387.055 45.467,387.183 44.890 C 387.208 44.777,387.409 44.129,387.631 43.451 C 387.852 42.773,388.327 41.248,388.687 40.062 C 389.264 38.159,390.555 34.346,390.912 33.487 C 390.982 33.318,391.054 33.087,391.071 32.974 C 391.089 32.861,391.159 32.630,391.228 32.460 C 391.412 32.010,392.037 30.062,393.009 26.913 C 394.543 21.943,395.286 19.627,395.481 19.209 C 395.586 18.983,395.871 18.151,396.115 17.360 C 396.358 16.569,396.907 14.859,397.333 13.559 C 401.024 2.318,400.932 -1.550,397.021 0.413 M315.973 24.791 C 314.629 25.248,313.963 25.785,312.109 27.902 C 311.396 28.716,309.611 32.236,308.964 34.104 C 308.709 34.838,308.365 35.763,308.199 36.158 C 308.032 36.554,307.864 37.150,307.823 37.483 C 307.783 37.816,307.654 38.148,307.536 38.221 C 307.419 38.294,307.343 38.437,307.367 38.540 C 307.391 38.642,307.297 39.004,307.157 39.343 C 307.017 39.682,306.642 40.791,306.324 41.808 C 306.006 42.825,305.232 45.275,304.604 47.252 C 303.977 49.230,303.398 51.125,303.318 51.464 C 303.238 51.803,303.115 52.126,303.044 52.183 C 302.872 52.321,302.118 54.705,302.177 54.927 C 302.202 55.023,302.141 55.208,302.040 55.337 C 301.939 55.467,301.514 56.682,301.096 58.038 C 300.677 59.394,299.924 61.801,299.422 63.387 C 298.921 64.973,298.511 66.383,298.511 66.520 C 298.511 66.657,298.413 66.769,298.293 66.769 C 298.173 66.769,298.135 66.866,298.208 66.984 C 298.281 67.102,298.229 67.333,298.092 67.497 C 297.956 67.662,297.913 67.797,297.997 67.797 C 298.081 67.797,298.060 67.912,297.949 68.053 C 297.839 68.195,297.359 69.558,296.881 71.084 C 296.404 72.609,295.662 74.967,295.233 76.323 C 294.803 77.678,294.192 79.620,293.874 80.637 C 293.556 81.654,293.167 82.690,293.009 82.939 C 292.852 83.188,292.778 83.482,292.846 83.593 C 292.915 83.703,292.876 83.851,292.761 83.922 C 292.647 83.993,292.553 84.261,292.553 84.518 C 292.553 84.775,292.483 85.055,292.399 85.140 C 292.314 85.224,292.237 85.355,292.227 85.431 C 292.218 85.506,292.102 85.828,291.970 86.146 C 291.839 86.464,291.731 86.795,291.731 86.882 C 291.731 86.969,291.542 87.634,291.312 88.358 C 290.419 91.163,289.905 92.816,289.464 94.299 C 289.212 95.146,288.927 95.941,288.830 96.064 C 288.732 96.187,288.711 96.347,288.783 96.419 C 288.855 96.490,288.813 96.670,288.691 96.817 C 288.568 96.965,288.421 97.346,288.363 97.665 C 288.305 97.984,288.113 98.466,287.935 98.737 C 287.758 99.008,287.660 99.230,287.718 99.230 C 287.776 99.230,287.696 99.576,287.540 100.000 C 287.249 100.787,287.000 101.580,285.680 105.907 C 285.267 107.262,284.647 109.158,284.304 110.118 C 283.960 111.079,283.647 112.096,283.609 112.378 C 283.528 112.973,283.357 113.713,283.300 113.713 C 283.231 113.713,283.091 114.911,282.972 116.532 C 282.857 118.108,283.307 119.528,283.941 119.586 C 284.321 119.620,285.570 119.602,285.670 119.560 C 285.727 119.536,285.866 119.506,285.979 119.492 C 286.962 119.369,290.002 115.677,291.170 113.187 C 292.208 110.976,293.991 105.976,293.991 105.278 C 293.991 105.115,294.089 104.982,294.208 104.982 C 294.328 104.982,294.366 104.886,294.293 104.768 C 294.220 104.650,294.273 104.419,294.409 104.254 C 294.546 104.089,294.589 103.955,294.504 103.955 C 294.420 103.955,294.441 103.839,294.550 103.698 C 294.735 103.459,295.462 101.228,297.512 94.607 C 297.967 93.138,298.433 91.705,298.548 91.423 C 298.664 91.140,298.800 90.678,298.852 90.395 C 298.903 90.113,299.079 89.613,299.242 89.285 C 299.405 88.957,299.538 88.524,299.538 88.322 C 299.538 88.120,299.618 87.905,299.717 87.844 C 299.815 87.783,299.967 87.431,300.054 87.061 C 300.140 86.692,300.229 86.343,300.251 86.287 C 300.273 86.230,300.399 85.924,300.531 85.606 C 300.663 85.287,300.770 84.956,300.770 84.869 C 300.770 84.782,300.946 84.164,301.160 83.496 C 301.375 82.827,301.983 80.894,302.512 79.199 C 303.040 77.504,303.530 75.978,303.600 75.809 C 303.669 75.639,303.740 75.408,303.756 75.295 C 303.836 74.757,304.143 73.802,304.399 73.294 C 304.555 72.985,304.681 72.685,304.679 72.627 C 304.678 72.570,304.807 72.176,304.967 71.752 C 305.126 71.328,305.582 69.918,305.980 68.618 C 307.806 62.653,308.434 60.694,308.581 60.503 C 308.668 60.390,308.879 59.789,309.049 59.168 C 309.220 58.546,309.518 57.622,309.713 57.114 C 309.907 56.605,310.138 55.912,310.225 55.573 C 310.313 55.234,310.723 53.893,311.136 52.594 C 311.549 51.294,312.165 49.307,312.506 48.177 C 312.848 47.047,313.205 46.042,313.301 45.943 C 313.397 45.845,313.421 45.621,313.354 45.447 C 313.271 45.231,313.314 45.180,313.487 45.287 C 313.644 45.385,313.725 45.339,313.700 45.167 C 313.638 44.749,313.947 43.561,314.151 43.435 C 314.249 43.374,314.330 43.144,314.330 42.923 C 314.330 42.702,314.416 42.361,314.522 42.165 C 314.628 41.968,315.051 40.699,315.462 39.343 C 315.874 37.987,316.422 36.230,316.681 35.439 C 316.939 34.648,317.319 33.354,317.525 32.563 C 317.731 31.772,317.952 31.079,318.015 31.022 C 318.079 30.966,318.147 30.688,318.167 30.406 C 318.256 29.178,318.329 28.762,318.458 28.762 C 318.533 28.762,318.587 28.300,318.577 27.735 C 318.567 27.170,318.479 26.708,318.382 26.708 C 318.285 26.708,318.260 26.535,318.327 26.324 C 318.606 25.447,317.040 24.428,315.973 24.791 M296.764 31.481 C 296.425 31.603,295.998 31.873,295.816 32.081 C 295.633 32.290,295.400 32.460,295.298 32.460 C 295.196 32.460,294.746 32.922,294.299 33.487 C 293.851 34.052,293.414 34.515,293.327 34.515 C 293.240 34.515,293.169 34.648,293.169 34.811 C 293.169 34.974,292.964 35.252,292.712 35.427 C 292.461 35.603,292.329 35.747,292.419 35.747 C 292.509 35.747,292.437 35.893,292.259 36.070 C 292.082 36.248,291.936 36.518,291.936 36.672 C 291.936 36.825,291.818 37.073,291.674 37.222 C 290.933 37.988,289.633 41.851,289.271 44.362 C 288.626 48.832,291.177 49.717,294.739 46.260 C 296.342 44.704,299.685 38.429,299.180 37.924 C 299.119 37.862,299.185 37.671,299.328 37.499 C 299.471 37.326,299.519 37.185,299.435 37.185 C 299.351 37.185,299.387 37.058,299.516 36.903 C 299.645 36.748,299.693 36.471,299.622 36.287 C 299.552 36.103,299.586 35.953,299.698 35.953 C 299.899 35.953,299.932 33.072,299.737 32.471 C 299.409 31.459,298.069 31.013,296.764 31.481 M339.086 40.611 C 336.507 40.948,334.671 41.822,330.114 44.882 C 328.894 45.702,324.951 49.779,323.551 51.669 C 322.840 52.630,322.184 53.416,322.094 53.416 C 322.005 53.416,321.931 53.546,321.931 53.707 C 321.931 53.867,321.827 54.032,321.700 54.075 C 321.573 54.117,321.273 54.482,321.033 54.887 C 318.881 58.509,317.498 60.734,317.318 60.860 C 317.200 60.943,317.179 61.012,317.271 61.014 C 317.364 61.016,317.264 61.271,317.050 61.582 C 316.453 62.447,312.892 69.898,312.892 70.282 C 312.892 70.397,312.800 70.435,312.689 70.366 C 312.571 70.294,312.538 70.378,312.611 70.567 C 312.680 70.747,312.572 71.075,312.371 71.297 C 312.170 71.519,312.078 71.700,312.166 71.700 C 312.254 71.700,312.230 71.816,312.114 71.957 C 311.997 72.098,311.699 72.768,311.451 73.446 C 311.203 74.124,310.679 75.557,310.287 76.631 C 309.896 77.704,309.209 79.778,308.762 81.239 C 308.315 82.700,307.876 83.995,307.787 84.115 C 307.698 84.236,307.607 84.607,307.586 84.940 C 307.565 85.272,307.472 85.596,307.379 85.659 C 307.211 85.773,306.897 87.000,306.140 90.498 C 303.924 100.748,304.363 107.362,307.457 110.310 C 309.616 112.368,315.424 112.358,318.149 110.292 C 318.273 110.198,318.435 110.183,318.509 110.257 C 318.583 110.331,318.644 110.295,318.644 110.176 C 318.644 110.058,318.806 109.905,319.004 109.837 C 319.719 109.590,320.811 108.858,323.328 106.934 C 323.476 106.821,323.882 106.430,324.230 106.066 C 324.579 105.702,324.944 105.453,325.041 105.513 C 325.139 105.573,325.218 105.542,325.218 105.444 C 325.218 105.346,325.856 104.599,326.636 103.785 C 327.416 102.970,328.272 102.019,328.537 101.672 C 328.802 101.324,329.396 100.564,329.857 99.981 C 331.022 98.508,332.614 96.099,332.614 95.808 C 332.614 95.675,332.687 95.535,332.776 95.497 C 332.865 95.460,333.178 95.013,333.472 94.504 C 334.483 92.754,335.090 91.634,335.082 91.527 C 335.078 91.469,335.217 91.080,335.392 90.663 C 337.544 85.511,336.450 82.327,333.334 84.674 C 332.832 85.053,332.419 85.468,332.415 85.597 C 332.412 85.726,332.270 85.885,332.101 85.950 C 331.931 86.015,331.793 86.164,331.793 86.280 C 331.793 86.397,331.631 86.663,331.433 86.872 C 330.762 87.582,330.354 88.140,330.354 88.350 C 330.354 88.465,330.216 88.613,330.046 88.678 C 329.877 88.743,329.738 88.917,329.738 89.065 C 329.738 89.213,329.664 89.365,329.573 89.402 C 329.483 89.440,328.962 90.101,328.416 90.871 C 327.870 91.641,327.204 92.414,326.937 92.590 C 326.670 92.765,326.451 93.016,326.451 93.148 C 326.451 93.497,322.563 97.586,322.231 97.586 C 322.077 97.586,321.878 97.707,321.787 97.855 C 321.644 98.089,319.016 99.629,318.745 99.637 C 318.690 99.639,318.621 99.652,318.593 99.667 C 314.991 101.524,313.190 94.621,315.342 87.211 C 315.441 86.872,315.678 85.931,315.869 85.119 C 316.328 83.170,316.421 83.073,318.327 82.576 C 319.225 82.342,320.057 82.090,320.176 82.016 C 320.395 81.878,320.535 81.835,321.155 81.712 C 321.349 81.673,321.573 81.577,321.651 81.499 C 321.730 81.420,321.989 81.356,322.228 81.356 C 322.466 81.356,323.352 81.136,324.197 80.866 C 325.041 80.597,327.350 79.939,329.327 79.404 C 334.013 78.137,335.848 77.518,336.373 77.029 C 336.608 76.810,336.899 76.628,337.019 76.625 C 337.139 76.622,337.699 76.207,338.264 75.703 C 338.829 75.198,339.352 74.785,339.426 74.784 C 339.900 74.777,342.812 69.559,343.030 68.326 C 343.069 68.109,343.185 67.830,343.288 67.705 C 343.392 67.580,343.622 67.018,343.799 66.456 C 343.977 65.894,344.211 65.157,344.319 64.818 C 346.932 56.620,347.289 47.129,345.121 43.455 C 343.866 41.328,341.637 40.278,339.086 40.611 M374.540 43.900 C 374.864 44.218,375.132 44.692,375.136 44.953 C 375.139 45.214,375.225 45.375,375.328 45.312 C 375.692 45.087,376.014 48.053,375.863 50.256 C 375.783 51.429,375.647 52.388,375.561 52.388 C 375.474 52.388,375.443 52.596,375.491 52.851 C 375.539 53.105,375.477 53.729,375.354 54.237 C 375.230 54.746,375.081 55.384,375.022 55.656 C 374.964 55.928,374.825 56.320,374.713 56.529 C 374.602 56.737,374.548 56.908,374.593 56.908 C 374.804 56.908,373.387 61.890,372.168 65.434 C 370.909 69.096,370.707 69.629,370.229 70.549 C 370.000 70.990,369.862 71.429,369.921 71.525 C 369.981 71.621,369.946 71.700,369.843 71.700 C 369.741 71.700,369.494 72.093,369.294 72.573 C 368.449 74.608,367.326 76.819,365.882 79.290 C 365.720 79.566,365.380 80.010,365.126 80.275 C 364.872 80.541,364.664 80.875,364.664 81.018 C 364.664 81.161,364.502 81.458,364.304 81.677 C 364.106 81.896,363.697 82.399,363.395 82.794 C 360.137 87.058,356.381 88.669,354.770 86.492 C 353.094 84.229,354.155 74.415,356.785 67.840 C 357.073 67.120,357.521 65.867,357.780 65.057 C 358.850 61.709,361.826 54.851,362.387 54.443 C 362.464 54.386,362.700 53.970,362.911 53.518 C 363.590 52.060,365.075 49.671,365.959 48.615 C 366.433 48.049,366.821 47.534,366.822 47.470 C 366.830 46.812,371.603 43.169,372.075 43.461 C 372.180 43.526,372.265 43.494,372.265 43.390 C 372.265 42.948,373.956 43.327,374.540 43.900 M335.001 53.563 C 335.200 53.363,336.269 54.450,336.646 55.236 C 337.048 56.074,337.133 61.306,336.750 61.689 C 336.640 61.799,336.599 62.017,336.659 62.175 C 336.720 62.332,336.655 62.598,336.516 62.766 C 336.376 62.934,336.311 63.071,336.371 63.071 C 336.431 63.071,336.354 63.549,336.200 64.133 C 336.046 64.718,335.968 65.272,336.026 65.366 C 336.084 65.460,336.033 65.537,335.914 65.537 C 335.794 65.537,335.711 65.606,335.730 65.691 C 335.748 65.776,335.694 66.122,335.608 66.461 C 335.204 68.070,335.045 68.377,334.506 68.584 C 333.947 68.798,331.752 69.430,331.176 69.543 C 330.376 69.700,328.378 70.331,328.178 70.490 C 328.055 70.589,327.899 70.615,327.832 70.548 C 327.766 70.481,327.589 70.502,327.440 70.595 C 327.139 70.783,326.950 70.840,326.348 70.924 C 326.122 70.955,325.891 71.035,325.835 71.101 C 325.778 71.167,325.316 71.332,324.807 71.466 C 319.743 72.807,319.593 72.832,320.015 72.270 C 320.123 72.126,320.471 71.315,320.790 70.467 C 321.794 67.794,322.795 65.537,322.976 65.537 C 323.072 65.537,323.093 65.375,323.022 65.177 C 322.951 64.979,322.971 64.889,323.066 64.975 C 323.207 65.104,323.574 64.493,323.810 63.736 C 324.046 62.979,327.361 58.005,328.018 57.422 C 328.145 57.309,328.330 57.063,328.428 56.875 C 328.686 56.386,331.149 54.447,331.998 54.065 C 332.687 53.756,333.115 53.643,333.898 53.568 C 334.096 53.549,334.258 53.449,334.258 53.346 C 334.258 53.244,334.399 53.277,334.571 53.420 C 334.743 53.563,334.937 53.627,335.001 53.563 M288.990 55.743 C 288.556 55.875,288.271 56.053,288.357 56.138 C 288.442 56.222,288.381 56.294,288.221 56.296 C 287.640 56.306,285.428 58.695,284.756 60.038 C 284.601 60.346,284.321 60.764,284.132 60.967 C 283.944 61.169,283.828 61.448,283.874 61.586 C 283.920 61.725,283.858 61.839,283.736 61.839 C 283.613 61.839,283.513 61.993,283.513 62.182 C 283.513 62.371,283.385 62.671,283.229 62.850 C 283.073 63.028,282.734 63.775,282.477 64.510 C 282.219 65.244,281.931 65.933,281.836 66.040 C 281.742 66.147,281.664 66.374,281.664 66.544 C 281.664 66.713,281.117 68.567,280.448 70.663 C 279.778 72.759,279.113 74.890,278.968 75.398 C 278.823 75.907,278.654 76.369,278.592 76.425 C 278.476 76.532,277.658 79.035,276.008 84.335 C 275.481 86.030,274.873 87.963,274.659 88.632 C 274.444 89.300,274.268 89.970,274.268 90.121 C 274.268 90.272,274.189 90.395,274.093 90.395 C 273.946 90.395,273.134 92.962,273.184 93.272 C 273.193 93.328,273.097 93.559,272.971 93.785 C 272.845 94.011,272.734 94.242,272.724 94.299 C 272.582 95.118,269.517 104.651,269.330 104.853 C 269.239 104.951,269.213 105.160,269.273 105.315 C 269.333 105.471,269.271 105.598,269.137 105.598 C 269.002 105.598,268.934 105.714,268.984 105.855 C 269.035 105.996,269.006 106.251,268.919 106.420 C 268.545 107.154,265.612 116.612,265.216 118.363 C 264.502 121.522,264.798 124.659,265.817 124.727 C 266.002 124.740,266.458 124.775,266.831 124.806 C 267.205 124.838,267.461 124.815,267.402 124.755 C 267.343 124.696,267.656 124.468,268.099 124.249 C 269.139 123.735,271.803 120.868,271.803 120.263 C 271.803 120.126,271.876 119.983,271.966 119.945 C 272.240 119.830,273.350 117.507,273.962 115.768 C 274.280 114.864,274.618 114.036,274.712 113.929 C 274.807 113.822,274.884 113.521,274.884 113.261 C 274.884 113.002,274.969 112.789,275.072 112.789 C 275.175 112.789,275.235 112.627,275.205 112.429 C 275.175 112.232,275.279 111.873,275.436 111.633 C 275.592 111.393,275.761 110.985,275.811 110.726 C 275.924 110.137,276.497 108.302,276.739 107.756 C 276.839 107.530,277.191 106.420,277.521 105.290 C 278.649 101.427,279.448 98.921,279.616 98.713 C 279.709 98.599,279.897 98.044,280.035 97.481 C 280.173 96.917,280.352 96.364,280.433 96.251 C 280.514 96.138,280.745 95.490,280.945 94.813 C 281.557 92.746,282.493 89.723,282.790 88.855 C 282.945 88.403,283.317 87.201,283.618 86.184 C 283.919 85.167,284.243 84.254,284.337 84.156 C 284.431 84.057,284.453 83.834,284.387 83.660 C 284.300 83.435,284.344 83.392,284.537 83.511 C 284.700 83.612,284.760 83.599,284.686 83.480 C 284.561 83.278,284.963 81.892,285.221 81.634 C 285.299 81.556,285.362 81.293,285.362 81.048 C 285.362 80.803,285.431 80.533,285.516 80.449 C 285.601 80.364,285.678 80.233,285.688 80.158 C 285.698 80.082,285.764 79.882,285.835 79.712 C 285.906 79.543,286.284 78.341,286.675 77.042 C 288.340 71.502,289.489 67.906,289.775 67.333 C 289.943 66.996,290.031 66.638,289.969 66.539 C 289.908 66.440,289.956 66.359,290.075 66.359 C 290.195 66.359,290.273 66.289,290.249 66.204 C 290.226 66.120,290.374 65.496,290.580 64.818 C 290.786 64.140,291.078 63.169,291.230 62.661 C 292.270 59.176,292.017 56.358,290.607 55.715 C 289.980 55.430,290.016 55.429,288.990 55.743 M262.506 63.911 C 261.620 64.119,259.774 65.015,259.579 65.331 C 259.507 65.448,259.373 65.497,259.282 65.441 C 259.191 65.385,258.882 65.545,258.594 65.797 C 258.307 66.049,257.810 66.474,257.490 66.740 C 255.123 68.711,252.799 71.305,250.745 74.269 C 250.519 74.595,250.080 75.096,249.769 75.381 C 249.458 75.667,249.204 76.050,249.204 76.234 C 249.204 76.417,249.003 76.743,248.758 76.958 C 248.319 77.344,248.315 77.344,248.465 76.939 C 250.575 71.243,249.498 67.337,246.265 68.966 C 245.373 69.416,243.657 70.941,243.657 71.284 C 243.657 71.384,243.531 71.592,243.376 71.746 C 242.528 72.594,240.474 77.219,239.337 80.842 C 238.982 81.972,238.615 83.082,238.521 83.308 C 238.321 83.787,236.796 88.753,236.347 90.384 C 236.178 90.999,235.940 91.623,235.817 91.770 C 235.695 91.918,235.670 92.039,235.763 92.039 C 235.856 92.039,235.828 92.143,235.702 92.270 C 235.575 92.396,235.517 92.618,235.572 92.762 C 235.627 92.907,235.574 93.086,235.453 93.160 C 235.332 93.235,235.234 93.475,235.234 93.695 C 235.234 93.914,235.136 94.093,235.016 94.093 C 234.896 94.093,234.853 94.182,234.920 94.291 C 234.987 94.399,234.953 94.653,234.844 94.856 C 234.736 95.058,234.351 96.194,233.989 97.381 C 233.627 98.567,233.210 99.908,233.062 100.360 C 232.914 100.812,232.320 102.707,231.743 104.571 C 231.165 106.436,230.546 108.285,230.367 108.680 C 230.188 109.076,230.015 109.584,229.983 109.810 C 229.952 110.036,229.515 111.469,229.012 112.994 C 227.719 116.922,225.976 122.422,225.986 122.547 C 225.990 122.605,225.858 122.975,225.693 123.370 C 225.528 123.765,225.458 124.090,225.537 124.091 C 225.616 124.093,225.582 124.163,225.461 124.246 C 225.340 124.329,225.031 125.090,224.774 125.937 C 224.517 126.785,224.230 127.663,224.137 127.889 C 224.044 128.115,223.393 130.195,222.692 132.512 C 221.990 134.828,221.361 136.816,221.294 136.929 C 221.227 137.042,221.153 137.227,221.129 137.339 C 221.106 137.452,220.974 137.869,220.836 138.264 C 220.333 139.705,220.224 140.077,220.190 140.473 C 220.178 140.614,220.091 140.729,219.997 140.729 C 219.902 140.729,219.844 140.799,219.866 140.883 C 219.888 140.968,219.835 141.269,219.747 141.551 C 219.343 142.857,217.528 148.642,216.944 150.488 C 216.587 151.618,216.271 152.635,216.242 152.748 C 216.214 152.861,216.076 153.231,215.936 153.570 C 215.796 153.909,215.667 154.417,215.648 154.700 C 215.629 154.982,215.555 155.259,215.484 155.316 C 215.130 155.597,214.830 159.747,215.120 160.355 C 215.531 161.217,218.798 161.274,218.798 160.419 C 218.798 160.324,218.892 160.247,219.007 160.247 C 219.188 160.247,220.647 158.881,220.647 158.711 C 220.647 158.618,222.357 156.050,222.498 155.932 C 222.611 155.837,222.837 155.370,223.615 153.621 C 223.778 153.254,224.532 151.058,225.290 148.742 C 226.048 146.425,226.727 144.484,226.798 144.427 C 226.869 144.371,226.918 144.186,226.907 144.016 C 226.897 143.847,226.957 143.614,227.041 143.498 C 227.125 143.383,227.376 142.643,227.598 141.855 C 227.821 141.066,228.329 139.404,228.727 138.161 C 229.125 136.918,229.886 134.515,230.419 132.820 C 230.952 131.125,231.460 129.657,231.549 129.559 C 231.637 129.460,231.660 129.252,231.600 129.097 C 231.541 128.941,231.600 128.814,231.731 128.814 C 231.863 128.814,231.911 128.717,231.838 128.599 C 231.765 128.481,231.810 128.259,231.937 128.106 C 232.064 127.953,232.206 127.630,232.252 127.388 C 232.543 125.878,233.179 125.095,233.179 126.247 C 233.179 126.916,234.151 129.946,234.605 130.692 C 235.752 132.578,238.642 133.163,241.363 132.060 C 242.626 131.547,243.355 131.211,243.451 131.094 C 243.508 131.026,244.109 130.602,244.787 130.150 C 246.114 129.267,251.258 124.230,251.258 123.814 C 251.258 123.739,251.420 123.506,251.618 123.297 C 252.487 122.379,255.278 118.419,255.964 117.131 C 256.123 116.833,256.354 116.522,256.478 116.439 C 256.601 116.356,256.635 116.286,256.552 116.285 C 256.469 116.283,256.797 115.611,257.281 114.792 C 257.765 113.973,258.646 112.286,259.238 111.043 C 259.831 109.800,260.400 108.644,260.503 108.475 C 261.246 107.260,262.734 103.740,264.195 99.743 C 264.773 98.161,265.386 96.540,265.557 96.139 C 265.729 95.739,265.895 95.277,265.928 95.112 C 265.961 94.947,266.081 94.581,266.197 94.299 C 267.383 91.389,270.058 80.072,269.977 78.305 C 269.965 78.039,270.024 77.716,270.108 77.586 C 270.483 77.010,270.483 69.646,270.109 69.646 C 270.023 69.646,269.954 69.463,269.954 69.239 C 269.954 68.639,269.103 66.153,268.898 66.153 C 268.801 66.153,268.721 66.052,268.721 65.929 C 268.721 64.440,265.162 63.285,262.506 63.911 M224.052 75.995 C 224.106 76.049,223.700 76.209,223.149 76.350 C 222.048 76.632,219.762 77.650,219.654 77.906 C 219.617 77.996,219.500 78.069,219.394 78.069 C 219.106 78.069,216.332 80.426,215.511 81.368 C 215.116 81.822,214.307 82.721,213.713 83.367 C 213.120 84.012,212.635 84.654,212.635 84.792 C 212.635 84.931,212.404 85.196,212.121 85.381 C 211.839 85.566,211.608 85.805,211.608 85.911 C 211.608 86.127,210.361 87.788,210.118 87.896 C 210.033 87.934,209.964 88.085,209.964 88.233 C 209.964 88.381,209.825 88.556,209.656 88.621 C 209.408 88.716,209.348 88.545,209.348 87.756 C 209.348 85.678,208.377 83.609,207.013 82.777 C 205.210 81.678,200.642 82.956,198.248 85.230 C 197.968 85.495,197.418 85.957,197.025 86.256 C 196.193 86.890,194.145 88.891,194.145 89.071 C 194.145 89.139,193.891 89.463,193.580 89.790 C 193.269 90.118,192.854 90.596,192.657 90.853 C 192.461 91.110,192.061 91.597,191.769 91.936 C 191.476 92.275,191.085 92.784,190.898 93.066 C 190.712 93.349,190.442 93.654,190.298 93.744 C 190.154 93.835,190.036 94.058,190.036 94.241 C 190.036 94.423,189.984 94.521,189.921 94.458 C 189.858 94.395,189.955 93.830,190.138 93.202 C 192.123 86.372,187.850 85.086,183.799 91.295 C 183.218 92.185,182.731 92.994,182.717 93.093 C 182.703 93.191,182.680 93.370,182.666 93.489 C 182.652 93.609,182.532 93.640,182.400 93.558 C 182.238 93.458,182.202 93.522,182.290 93.752 C 182.363 93.940,182.338 94.093,182.236 94.093 C 182.135 94.093,181.991 94.301,181.918 94.556 C 181.845 94.810,181.609 95.407,181.394 95.883 C 181.178 96.358,180.640 97.976,180.196 99.478 C 178.709 104.515,177.941 106.860,177.670 107.194 C 177.445 107.472,177.448 107.498,177.690 107.352 C 177.905 107.223,177.932 107.252,177.798 107.467 C 177.699 107.626,177.593 107.921,177.561 108.123 C 177.530 108.325,177.319 108.853,177.093 109.296 C 176.867 109.739,176.643 110.314,176.595 110.572 C 176.546 110.831,176.493 111.043,176.476 111.043 C 176.459 111.043,176.415 111.202,176.377 111.397 C 176.340 111.592,176.169 112.147,175.999 112.630 C 175.668 113.566,174.133 118.505,173.906 119.363 C 173.831 119.646,173.453 120.738,173.065 121.791 C 172.678 122.844,172.414 123.792,172.479 123.897 C 172.544 124.002,172.500 124.088,172.380 124.088 C 172.260 124.088,172.181 124.158,172.204 124.242 C 172.248 124.402,171.854 125.730,171.549 126.451 C 171.319 126.996,170.870 128.410,170.016 131.279 C 168.607 136.011,168.129 137.449,168.005 137.326 C 167.936 137.256,167.906 137.369,167.940 137.577 C 167.973 137.786,167.917 138.062,167.814 138.192 C 167.711 138.321,167.594 138.599,167.553 138.808 C 167.512 139.017,167.292 139.743,167.064 140.421 C 164.132 149.151,163.763 152.751,165.694 153.791 C 166.465 154.206,167.943 153.732,169.049 152.716 C 170.526 151.358,170.838 151.014,171.444 150.077 C 172.148 148.986,173.600 146.001,173.600 145.643 C 173.600 145.526,173.699 145.491,173.820 145.566 C 173.940 145.640,174.018 145.576,173.992 145.424 C 173.920 145.002,174.237 144.016,174.444 144.016 C 174.545 144.016,174.628 143.871,174.628 143.693 C 174.628 143.515,174.848 142.706,175.116 141.895 C 175.385 141.085,175.947 139.312,176.364 137.956 C 177.692 133.643,178.424 131.385,178.531 131.279 C 178.587 131.222,178.664 130.902,178.700 130.567 C 178.736 130.231,178.896 129.723,179.055 129.437 C 179.344 128.915,179.751 127.661,181.921 120.596 C 182.563 118.505,183.218 116.590,183.378 116.340 C 183.537 116.090,183.667 115.669,183.667 115.405 C 183.667 115.141,183.746 114.838,183.843 114.730 C 183.939 114.623,184.361 113.611,184.781 112.481 C 186.164 108.754,187.735 105.148,188.034 105.016 C 188.120 104.978,188.137 104.862,188.073 104.759 C 188.010 104.656,188.055 104.571,188.175 104.571 C 188.294 104.571,188.369 104.502,188.341 104.417 C 188.313 104.332,188.516 103.893,188.791 103.441 C 189.066 102.989,189.277 102.560,189.260 102.487 C 189.243 102.415,189.443 102.124,189.704 101.842 C 189.966 101.560,190.373 101.018,190.609 100.639 C 191.793 98.735,195.584 96.183,196.846 96.440 C 198.322 96.741,198.564 98.328,197.701 102.054 C 197.512 102.874,197.276 103.544,197.177 103.544 C 197.078 103.544,197.054 103.636,197.124 103.749 C 197.194 103.862,197.179 104.070,197.090 104.212 C 197.002 104.353,196.903 104.653,196.870 104.879 C 196.837 105.105,196.676 105.632,196.511 106.050 C 196.346 106.468,196.167 107.069,196.112 107.385 C 196.058 107.702,195.685 108.978,195.285 110.221 C 193.762 114.947,192.467 119.069,192.391 119.435 C 192.347 119.645,192.212 119.935,192.091 120.082 C 191.970 120.228,191.888 120.426,191.910 120.523 C 191.932 120.619,191.896 120.837,191.830 121.007 C 191.583 121.641,190.459 125.116,189.538 128.095 C 187.969 133.167,187.757 133.818,187.452 134.494 C 187.291 134.850,187.160 135.271,187.160 135.429 C 187.160 135.587,187.044 135.841,186.903 135.993 C 186.703 136.209,186.702 136.238,186.901 136.126 C 187.071 136.030,187.115 136.088,187.033 136.302 C 186.965 136.477,186.822 136.620,186.714 136.620 C 186.606 136.620,186.544 136.782,186.577 136.980 C 186.609 137.178,186.574 137.438,186.498 137.558 C 186.422 137.679,186.166 138.465,185.927 139.305 C 183.957 146.254,184.897 149.089,188.553 147.219 C 189.993 146.482,192.912 143.013,192.912 142.040 C 192.912 141.871,193.005 141.789,193.118 141.859 C 193.231 141.929,193.323 141.839,193.323 141.659 C 193.323 141.479,193.469 141.108,193.648 140.836 C 193.826 140.563,193.997 140.219,194.027 140.072 C 194.057 139.925,194.267 139.389,194.494 138.880 C 194.721 138.372,195.252 136.846,195.673 135.490 C 197.096 130.913,197.692 129.123,197.869 128.897 C 197.965 128.774,197.992 128.620,197.927 128.556 C 197.863 128.491,197.955 128.217,198.132 127.947 C 198.309 127.677,198.484 127.179,198.521 126.841 C 198.558 126.503,198.657 126.116,198.741 125.979 C 198.825 125.843,198.831 125.732,198.754 125.732 C 198.677 125.732,198.705 125.616,198.816 125.475 C 198.927 125.334,199.363 124.109,199.786 122.753 C 200.208 121.397,200.964 119.040,201.466 117.514 C 201.968 115.989,202.388 114.602,202.399 114.432 C 202.410 114.263,202.486 114.032,202.568 113.919 C 202.739 113.683,203.047 112.491,202.944 112.461 C 202.907 112.450,202.986 112.309,203.121 112.146 C 203.255 111.984,203.411 111.623,203.466 111.344 C 203.521 111.065,203.788 110.282,204.060 109.603 C 204.331 108.924,204.622 108.092,204.706 107.754 C 204.791 107.416,204.980 106.862,205.127 106.523 C 205.274 106.184,205.553 105.444,205.747 104.879 C 205.941 104.314,206.261 103.482,206.459 103.030 C 206.656 102.578,206.994 101.770,207.209 101.233 C 207.425 100.697,207.671 100.258,207.756 100.258 C 207.840 100.257,207.910 100.077,207.910 99.858 C 207.910 99.639,208.000 99.404,208.110 99.336 C 208.220 99.268,208.469 98.869,208.664 98.450 C 208.859 98.032,209.077 97.643,209.149 97.586 C 209.222 97.530,209.544 97.021,209.866 96.456 C 210.865 94.700,213.693 91.431,214.222 91.419 C 214.310 91.417,214.587 91.199,214.838 90.934 C 215.321 90.424,216.845 89.896,217.490 90.017 C 218.655 90.234,218.826 92.991,217.896 96.559 C 216.921 100.297,216.721 100.977,216.544 101.155 C 216.445 101.253,216.414 101.462,216.474 101.617 C 216.533 101.773,216.489 101.900,216.374 101.900 C 216.260 101.900,216.211 102.075,216.267 102.288 C 216.323 102.501,216.268 102.738,216.145 102.814 C 216.022 102.890,215.922 103.131,215.922 103.351 C 215.922 103.570,215.834 103.749,215.726 103.749 C 215.618 103.749,215.470 104.096,215.396 104.520 C 215.323 104.944,214.956 106.215,214.582 107.345 C 214.208 108.475,213.514 110.693,213.041 112.275 C 212.567 113.857,212.016 115.568,211.815 116.076 C 211.615 116.584,211.342 117.417,211.208 117.925 C 210.972 118.828,210.826 119.285,210.344 120.647 C 210.050 121.477,209.923 121.931,209.986 121.931 C 210.012 121.931,209.916 122.150,209.773 122.418 C 209.629 122.686,209.301 123.657,209.042 124.576 C 208.562 126.285,206.973 131.341,206.743 131.895 C 206.673 132.065,206.579 132.342,206.536 132.512 C 206.407 133.011,206.343 133.197,206.075 133.847 C 205.336 135.639,205.030 139.338,205.507 140.722 C 206.068 142.347,208.596 142.093,210.315 140.238 C 211.209 139.273,212.840 137.090,212.840 136.859 C 212.840 136.746,212.910 136.624,212.994 136.586 C 213.175 136.506,214.498 133.928,214.490 133.673 C 214.486 133.577,214.617 133.207,214.779 132.851 C 214.942 132.495,215.503 130.863,216.026 129.224 C 216.550 127.586,217.032 126.107,217.097 125.937 C 217.163 125.768,217.250 125.444,217.292 125.218 C 217.334 124.992,217.498 124.530,217.656 124.191 C 217.815 123.852,218.012 123.304,218.095 122.972 C 218.178 122.641,218.369 122.132,218.520 121.842 C 218.672 121.552,218.796 121.112,218.797 120.865 C 218.798 120.617,218.891 120.357,219.004 120.288 C 219.117 120.218,219.209 120.009,219.209 119.824 C 219.209 119.506,220.468 115.364,221.597 111.967 C 221.878 111.120,222.119 110.311,222.131 110.169 C 222.144 110.028,222.231 109.913,222.325 109.913 C 222.419 109.913,222.496 109.700,222.496 109.440 C 222.496 109.180,222.588 108.876,222.700 108.763 C 222.813 108.651,222.925 108.309,222.951 108.003 C 222.976 107.698,223.069 107.447,223.157 107.447 C 223.246 107.447,223.318 107.286,223.318 107.088 C 223.318 106.890,223.791 105.249,224.369 103.441 C 226.151 97.870,226.784 95.852,226.850 95.532 C 226.885 95.362,226.964 95.177,227.027 95.121 C 227.202 94.962,228.954 88.488,229.153 87.266 C 229.213 86.897,229.358 86.097,229.474 85.488 C 230.304 81.165,229.321 77.403,227.074 76.304 C 226.398 75.972,223.760 75.703,224.052 75.995 M259.054 78.226 C 259.342 78.507,259.440 78.663,259.271 78.573 C 259.051 78.456,259.068 78.529,259.328 78.827 C 259.894 79.473,259.977 80.020,259.950 82.897 C 259.920 86.160,259.902 86.513,259.747 86.903 C 259.680 87.072,259.593 87.396,259.554 87.622 C 259.515 87.848,259.433 88.310,259.373 88.649 C 259.312 88.988,259.245 89.421,259.223 89.610 C 259.201 89.799,259.110 89.910,259.021 89.855 C 258.932 89.800,258.860 89.987,258.860 90.271 C 258.860 90.554,258.711 91.322,258.529 91.978 C 258.346 92.633,258.151 93.424,258.094 93.736 C 258.037 94.049,257.909 94.355,257.809 94.416 C 257.709 94.478,257.627 94.690,257.627 94.887 C 257.627 95.703,255.106 102.803,254.892 102.589 C 254.814 102.512,254.751 102.650,254.751 102.896 C 254.751 103.350,254.380 104.159,254.066 104.389 C 253.971 104.458,253.925 104.552,253.963 104.599 C 254.001 104.646,253.646 105.514,253.175 106.528 C 252.704 107.542,252.334 108.431,252.353 108.504 C 252.373 108.577,252.249 108.808,252.079 109.018 C 251.908 109.228,251.539 109.844,251.257 110.389 C 250.975 110.933,250.563 111.575,250.340 111.815 C 250.117 112.056,249.915 112.394,249.889 112.566 C 249.864 112.739,249.699 112.986,249.524 113.114 C 249.348 113.243,249.204 113.505,249.204 113.697 C 249.204 113.889,249.111 113.989,248.998 113.919 C 248.885 113.849,248.793 113.917,248.793 114.071 C 248.793 114.490,245.105 118.589,245.089 118.187 C 245.085 118.100,244.990 118.187,244.876 118.382 C 244.571 118.906,242.233 119.980,241.400 119.979 C 238.368 119.975,237.551 115.596,239.145 107.892 C 239.664 105.384,240.756 101.610,240.987 101.528 C 241.087 101.492,241.121 101.339,241.063 101.188 C 241.005 101.037,241.146 100.521,241.378 100.043 C 241.609 99.565,241.755 99.104,241.702 99.019 C 241.650 98.935,241.745 98.751,241.913 98.611 C 242.081 98.472,242.219 98.227,242.219 98.067 C 242.219 97.256,245.730 89.159,246.154 88.992 C 246.250 88.954,246.328 88.778,246.328 88.600 C 246.328 88.422,246.541 87.991,246.802 87.641 C 247.062 87.292,247.584 86.451,247.961 85.773 C 248.724 84.400,249.153 83.794,250.282 82.501 C 250.706 82.015,251.053 81.559,251.053 81.487 C 251.053 80.717,255.399 77.699,256.749 77.532 C 257.165 77.480,257.544 77.399,257.593 77.350 C 257.729 77.214,258.470 77.658,259.054 78.226 M161.171 96.343 C 159.050 96.680,154.337 98.709,153.831 99.503 C 153.747 99.635,153.674 99.651,153.669 99.538 C 153.664 99.425,153.565 99.496,153.448 99.696 C 153.331 99.896,153.149 100.006,153.043 99.941 C 152.937 99.875,152.851 99.908,152.851 100.015 C 152.851 100.121,152.365 100.578,151.772 101.032 C 151.179 101.485,150.280 102.259,149.774 102.752 C 149.268 103.244,148.759 103.616,148.644 103.578 C 148.528 103.540,148.499 103.575,148.579 103.655 C 148.658 103.735,148.302 104.221,147.787 104.736 C 146.846 105.678,144.707 108.225,144.325 108.860 C 144.212 109.048,143.934 109.401,143.708 109.645 C 143.482 109.889,143.201 110.211,143.083 110.360 C 142.713 110.828,140.113 115.020,140.113 115.149 C 140.113 115.324,139.218 116.577,139.034 116.658 C 138.950 116.696,138.880 116.820,138.880 116.935 C 138.880 117.049,138.706 117.388,138.492 117.688 C 138.278 117.988,138.093 118.302,138.079 118.386 C 138.066 118.470,137.422 119.857,136.650 121.468 C 135.877 123.079,135.069 124.835,134.854 125.372 C 134.639 125.908,134.394 126.347,134.309 126.347 C 134.224 126.348,134.155 126.542,134.155 126.779 C 134.155 127.016,133.952 127.495,133.704 127.843 C 133.452 128.197,133.384 128.398,133.550 128.298 C 133.787 128.155,133.800 128.178,133.614 128.415 C 133.393 128.695,131.934 132.451,131.784 133.123 C 131.681 133.587,130.059 138.933,129.912 139.291 C 129.843 139.461,129.759 139.807,129.725 140.061 C 129.691 140.315,129.593 140.731,129.506 140.985 C 129.420 141.240,129.374 141.573,129.403 141.726 C 129.433 141.878,129.370 141.949,129.264 141.884 C 129.158 141.818,129.006 142.202,128.926 142.736 C 128.847 143.271,128.745 143.893,128.700 144.119 C 128.654 144.345,128.561 144.946,128.493 145.455 C 128.424 145.963,128.283 146.749,128.178 147.201 C 127.554 149.899,127.776 156.510,128.541 158.038 C 128.697 158.349,128.769 158.603,128.702 158.603 C 128.635 158.603,128.778 158.880,129.019 159.219 C 129.260 159.558,129.398 159.836,129.324 159.836 C 129.011 159.836,130.590 161.561,131.362 162.062 C 131.825 162.363,132.231 162.669,132.265 162.741 C 132.298 162.814,132.521 162.823,132.759 162.760 C 133.036 162.688,133.143 162.726,133.056 162.867 C 132.970 163.007,133.122 163.065,133.477 163.026 C 133.783 162.992,134.243 163.060,134.499 163.177 C 134.826 163.325,135.046 163.321,135.237 163.163 C 135.386 163.039,136.036 162.910,136.681 162.876 C 137.326 162.843,137.853 162.746,137.853 162.661 C 137.853 162.576,137.953 162.506,138.075 162.506 C 138.352 162.506,140.929 161.526,141.346 161.262 C 141.515 161.155,141.871 160.974,142.137 160.860 C 142.771 160.587,144.922 159.170,145.009 158.967 C 145.047 158.880,145.153 158.808,145.246 158.808 C 145.338 158.808,145.727 158.508,146.109 158.141 C 146.492 157.773,147.634 156.678,148.646 155.707 C 149.659 154.736,150.947 153.349,151.507 152.626 C 152.068 151.902,152.579 151.263,152.642 151.207 C 152.706 151.150,153.077 150.688,153.467 150.180 C 153.857 149.671,154.270 149.187,154.386 149.104 C 154.522 149.007,154.524 148.950,154.391 148.944 C 154.278 148.938,154.365 148.798,154.585 148.632 C 154.804 148.466,154.897 148.329,154.790 148.328 C 154.680 148.326,154.686 148.259,154.803 148.174 C 155.008 148.023,156.438 145.928,156.869 145.146 C 157.934 143.214,158.529 142.186,158.859 141.705 C 159.073 141.394,159.172 141.139,159.079 141.137 C 158.987 141.135,159.008 141.066,159.127 140.983 C 159.425 140.775,161.510 136.630,162.199 134.874 C 162.510 134.083,162.981 132.953,163.246 132.363 C 163.512 131.773,163.787 131.056,163.859 130.771 C 163.930 130.485,164.060 130.252,164.147 130.252 C 164.233 130.252,164.304 130.010,164.304 129.715 C 164.304 129.419,164.399 129.119,164.515 129.047 C 165.075 128.700,168.238 117.813,168.783 114.355 C 168.852 113.917,168.951 113.362,169.002 113.122 C 169.165 112.358,169.303 111.272,169.339 110.478 C 169.358 110.054,169.428 109.707,169.495 109.707 C 169.662 109.707,169.714 103.944,169.549 103.677 C 169.476 103.559,169.397 103.272,169.373 103.041 C 168.895 98.425,165.503 95.656,161.171 96.343 M121.515 109.147 C 121.347 109.241,121.117 109.262,121.005 109.193 C 120.893 109.123,120.801 109.172,120.801 109.301 C 120.801 109.430,120.686 109.497,120.544 109.450 C 120.046 109.282,114.470 111.909,114.264 112.408 C 114.228 112.496,113.858 112.776,113.442 113.030 C 113.026 113.284,112.316 113.835,111.864 114.254 C 111.412 114.673,110.716 115.277,110.316 115.597 C 108.987 116.662,108.064 117.577,108.064 117.830 C 108.064 117.968,107.916 118.203,107.735 118.353 C 107.298 118.715,104.366 122.196,104.366 122.352 C 104.366 122.419,104.250 122.595,104.109 122.742 C 103.807 123.058,103.739 123.157,102.000 125.823 C 101.267 126.947,100.668 127.979,100.668 128.117 C 100.668 128.255,100.577 128.399,100.466 128.437 C 100.231 128.516,99.877 129.166,97.611 133.677 C 96.693 135.504,95.942 137.104,95.942 137.233 C 95.942 137.361,95.836 137.401,95.705 137.320 C 95.557 137.228,95.524 137.264,95.618 137.415 C 95.766 137.655,95.337 138.880,95.105 138.880 C 95.038 138.880,94.983 138.996,94.982 139.137 C 94.980 139.278,94.730 139.937,94.425 140.601 C 93.810 141.939,92.441 145.802,91.795 148.023 C 91.565 148.814,91.295 149.562,91.196 149.685 C 91.097 149.808,91.076 149.970,91.151 150.045 C 91.225 150.119,91.193 150.180,91.080 150.180 C 90.967 150.180,90.871 150.434,90.866 150.745 C 90.861 151.055,90.735 151.587,90.586 151.926 C 90.437 152.265,90.301 152.635,90.284 152.748 C 90.267 152.861,90.202 153.092,90.139 153.261 C 89.858 154.021,89.043 157.969,88.845 159.527 C 88.774 160.092,88.676 160.786,88.628 161.068 C 87.942 165.091,89.005 172.779,90.247 172.779 C 90.366 172.779,90.405 172.837,90.334 172.909 C 90.187 173.056,91.410 174.080,92.347 174.596 C 93.640 175.306,99.108 174.869,100.205 173.967 C 100.347 173.851,100.462 173.815,100.462 173.887 C 100.462 173.959,100.948 173.767,101.541 173.459 C 102.134 173.152,102.677 172.896,102.748 172.891 C 102.913 172.879,104.901 171.591,105.244 171.274 C 105.651 170.899,106.800 170.108,106.939 170.108 C 107.113 170.108,107.990 169.279,110.177 167.046 C 111.218 165.984,112.324 164.864,112.635 164.559 C 112.946 164.253,113.200 163.905,113.200 163.785 C 113.200 163.666,113.269 163.537,113.354 163.499 C 113.439 163.462,113.914 162.876,114.411 162.198 C 114.908 161.520,115.555 160.697,115.849 160.369 C 116.143 160.041,116.246 159.840,116.076 159.922 C 115.907 160.005,115.972 159.892,116.222 159.671 C 116.471 159.450,116.702 159.146,116.735 158.996 C 116.768 158.845,116.938 158.559,117.113 158.360 C 117.686 157.708,120.563 151.786,120.734 150.908 C 120.777 150.687,120.879 150.456,120.961 150.394 C 121.042 150.333,121.142 150.098,121.181 149.872 C 121.221 149.646,121.350 149.401,121.469 149.327 C 121.739 149.159,121.864 145.308,121.620 144.696 C 120.908 142.917,118.144 143.765,116.475 146.276 C 116.212 146.672,115.766 147.250,115.484 147.560 C 115.203 147.871,115.037 148.125,115.116 148.125 C 115.196 148.125,114.926 148.611,114.516 149.204 C 114.107 149.797,113.689 150.467,113.589 150.693 C 113.488 150.919,113.290 151.285,113.149 151.506 C 113.007 151.727,112.423 152.651,111.850 153.560 C 111.278 154.469,110.668 155.354,110.496 155.526 C 110.324 155.697,110.062 156.067,109.913 156.347 C 109.454 157.215,107.352 159.425,106.094 160.363 C 105.652 160.693,105.234 161.041,105.164 161.136 C 105.095 161.231,104.979 161.299,104.906 161.287 C 104.832 161.275,104.496 161.408,104.158 161.583 C 103.820 161.758,103.544 161.845,103.544 161.778 C 103.544 161.710,103.399 161.801,103.221 161.978 C 102.721 162.478,100.899 162.484,100.126 161.987 C 98.110 160.693,98.079 155.155,100.048 147.920 C 100.830 145.043,101.336 143.525,101.541 143.434 C 101.626 143.397,101.695 143.096,101.695 142.767 C 101.695 142.437,101.777 142.167,101.876 142.167 C 101.976 142.167,102.106 141.959,102.166 141.705 C 102.576 139.942,105.629 133.178,106.591 131.900 C 106.887 131.507,107.148 131.051,107.172 130.888 C 107.196 130.724,107.361 130.510,107.537 130.411 C 107.714 130.312,107.858 130.097,107.858 129.933 C 107.858 129.769,107.934 129.635,108.026 129.635 C 108.118 129.635,108.344 129.319,108.529 128.932 C 109.435 127.032,112.676 123.788,114.693 122.764 C 117.625 121.275,118.957 121.562,119.871 123.883 C 119.893 123.939,120.026 124.263,120.166 124.602 C 120.306 124.941,120.550 126.385,120.708 127.811 C 121.162 131.889,122.130 132.760,124.215 130.967 C 124.541 130.687,124.866 130.458,124.937 130.457 C 125.755 130.456,128.718 125.359,129.392 122.793 C 130.113 120.048,130.200 119.470,130.141 117.790 C 129.976 113.043,128.503 110.354,125.424 109.179 C 124.854 108.962,121.890 108.938,121.515 109.147 M158.513 109.759 C 159.550 110.988,159.719 111.647,159.714 114.432 C 159.709 116.965,158.949 121.940,158.600 121.724 C 158.521 121.675,158.501 121.864,158.554 122.143 C 158.607 122.422,158.559 122.650,158.447 122.650 C 158.335 122.650,158.230 122.881,158.213 123.164 C 158.156 124.143,158.123 124.294,157.962 124.294 C 157.873 124.294,157.742 124.640,157.672 125.064 C 157.601 125.488,157.490 125.973,157.423 126.143 C 157.357 126.312,157.287 126.497,157.268 126.554 C 157.248 126.610,157.178 126.795,157.111 126.965 C 157.045 127.134,156.878 127.643,156.741 128.095 C 156.468 128.996,154.500 134.270,154.038 135.340 C 153.878 135.709,153.676 135.940,153.588 135.853 C 153.500 135.767,153.448 135.835,153.472 136.004 C 153.546 136.523,153.478 136.785,153.200 137.068 C 153.053 137.217,152.642 137.940,152.288 138.675 C 151.647 140.004,150.788 141.561,150.589 141.757 C 150.531 141.813,150.301 142.207,150.078 142.632 C 149.855 143.058,149.463 143.631,149.207 143.907 C 148.951 144.184,148.742 144.485,148.742 144.578 C 148.742 144.671,148.580 144.896,148.382 145.079 C 148.184 145.261,147.471 146.025,146.798 146.777 C 144.209 149.665,140.879 151.017,139.060 149.919 C 137.432 148.936,137.196 144.307,138.487 138.675 C 139.128 135.880,139.948 133.058,140.248 132.620 C 140.400 132.397,140.524 132.049,140.524 131.846 C 140.524 131.487,142.130 127.156,143.396 124.103 C 144.097 122.413,145.257 120.152,145.523 119.956 C 145.618 119.887,145.687 119.749,145.677 119.648 C 145.660 119.467,147.499 116.405,147.910 115.931 C 148.028 115.794,148.125 115.586,148.125 115.468 C 148.125 115.351,148.212 115.254,148.317 115.254 C 148.422 115.254,148.561 115.090,148.625 114.888 C 148.737 114.535,150.930 112.207,152.154 111.142 C 154.598 109.013,157.376 108.409,158.513 109.759 M51.693 114.169 C 51.669 114.193,51.330 114.256,50.940 114.309 C 50.046 114.430,47.135 115.324,43.554 116.578 C 42.029 117.112,40.180 117.740,39.445 117.974 C 38.711 118.208,38.050 118.491,37.977 118.603 C 37.903 118.715,37.690 118.748,37.504 118.676 C 37.317 118.605,37.208 118.617,37.262 118.705 C 37.316 118.792,35.555 119.492,33.348 120.261 C 29.470 121.612,28.307 122.165,26.968 123.292 C 26.235 123.908,23.832 127.125,23.832 127.489 C 23.832 127.625,23.694 127.850,23.526 127.990 C 23.357 128.130,23.270 128.326,23.332 128.426 C 23.394 128.526,23.370 128.609,23.279 128.610 C 23.104 128.611,22.599 129.578,22.599 129.911 C 22.599 130.017,22.419 130.484,22.198 130.948 C 21.978 131.413,21.459 132.902,21.045 134.258 C 19.468 139.421,19.039 140.729,18.920 140.730 C 18.853 140.730,18.778 141.017,18.753 141.369 C 18.729 141.720,18.622 142.112,18.517 142.241 C 18.411 142.370,18.220 142.892,18.091 143.400 C 17.963 143.909,17.734 144.648,17.582 145.044 C 17.429 145.439,17.053 146.595,16.746 147.612 C 15.388 152.106,15.144 152.884,14.357 155.213 C 13.899 156.569,13.499 157.817,13.468 157.987 C 13.437 158.156,13.304 158.562,13.172 158.888 C 13.040 159.214,12.909 159.630,12.880 159.812 C 12.852 159.995,12.756 160.259,12.669 160.400 C 12.581 160.541,12.472 160.849,12.426 161.085 C 12.288 161.800,9.595 170.343,9.216 171.267 C 9.084 171.590,8.996 172.016,9.020 172.214 C 9.045 172.411,8.973 172.573,8.860 172.573 C 8.747 172.573,8.658 172.735,8.662 172.933 C 8.666 173.130,8.343 174.217,7.944 175.347 C 7.545 176.477,6.792 178.834,6.270 180.586 C 5.748 182.337,5.136 184.278,4.910 184.900 C 4.685 185.521,4.453 186.261,4.395 186.543 C 4.337 186.826,4.208 187.086,4.108 187.122 C 4.008 187.157,3.978 187.320,4.041 187.484 C 4.103 187.647,4.053 187.904,3.928 188.054 C 3.804 188.205,3.762 188.388,3.837 188.463 C 3.911 188.537,3.864 188.598,3.732 188.598 C 3.600 188.598,3.512 188.667,3.535 188.752 C 3.559 188.837,3.243 189.969,2.834 191.269 C 0.322 199.251,0.222 199.637,0.072 201.960 C -0.155 205.460,1.547 206.558,4.220 204.639 C 4.704 204.291,5.201 204.006,5.324 204.006 C 5.447 204.006,5.547 203.933,5.547 203.845 C 5.547 203.756,5.966 203.239,6.479 202.696 C 7.380 201.742,9.656 197.601,9.656 196.915 C 9.656 196.740,9.794 196.544,9.963 196.479 C 10.132 196.415,10.221 196.283,10.161 196.186 C 10.102 196.090,10.142 195.845,10.250 195.643 C 10.440 195.288,10.682 194.677,10.803 194.248 C 10.834 194.135,11.244 192.840,11.713 191.371 C 12.553 188.744,13.682 185.066,14.332 182.845 C 14.513 182.224,14.740 181.662,14.835 181.597 C 14.930 181.532,15.044 181.209,15.087 180.878 C 15.131 180.548,15.281 180.000,15.422 179.661 C 15.562 179.322,15.699 178.943,15.725 178.819 C 15.785 178.538,17.417 173.313,18.478 170.005 L 19.268 167.540 21.088 166.850 C 24.621 165.511,26.578 165.566,27.190 167.022 C 27.335 167.367,27.522 167.581,27.605 167.498 C 27.689 167.415,27.696 167.506,27.621 167.700 C 27.543 167.903,27.582 168.053,27.713 168.053 C 27.838 168.053,27.940 168.266,27.940 168.526 C 27.940 168.786,28.056 169.123,28.197 169.275 C 28.406 169.500,28.396 169.520,28.146 169.380 C 27.876 169.229,27.875 169.253,28.132 169.569 C 28.293 169.768,28.440 170.418,28.458 171.012 C 28.475 171.607,28.552 172.194,28.629 172.318 C 28.705 172.442,28.902 177.149,29.065 182.779 C 29.349 192.560,29.439 193.660,30.055 194.931 C 30.395 195.633,32.114 196.294,32.443 195.849 C 32.509 195.759,33.025 195.457,33.590 195.178 C 34.855 194.553,36.936 192.511,37.575 191.269 C 37.837 190.760,38.318 189.947,38.645 189.461 C 38.972 188.975,39.240 188.358,39.240 188.091 C 39.240 187.824,39.334 187.574,39.449 187.535 C 39.649 187.469,39.713 187.166,39.967 185.105 C 40.030 184.597,40.122 183.950,40.172 183.667 C 40.793 180.165,40.613 167.879,39.924 166.765 C 39.866 166.670,39.782 166.170,39.738 165.654 C 39.695 165.138,39.561 164.598,39.442 164.454 C 39.323 164.311,39.244 164.114,39.266 164.018 C 39.288 163.921,39.200 163.584,39.070 163.270 C 38.940 162.955,38.852 162.631,38.874 162.551 C 38.930 162.342,38.245 161.088,37.640 160.292 C 37.358 159.922,37.164 159.595,37.208 159.565 C 37.252 159.535,37.629 159.260,38.045 158.954 C 38.461 158.648,38.906 158.398,39.033 158.398 C 39.160 158.398,39.197 158.289,39.116 158.157 C 39.016 157.996,39.079 157.960,39.309 158.048 C 39.516 158.127,39.651 158.077,39.651 157.922 C 39.651 157.780,39.936 157.496,40.285 157.290 C 41.803 156.393,48.485 149.277,48.485 148.557 C 48.485 148.444,48.602 148.277,48.745 148.187 C 49.047 147.996,50.539 145.838,50.539 145.593 C 50.539 145.501,50.798 145.039,51.115 144.567 C 51.431 144.095,52.135 142.738,52.678 141.551 C 53.221 140.365,53.771 139.326,53.900 139.243 C 54.029 139.160,54.075 139.091,54.003 139.089 C 53.930 139.087,54.149 138.416,54.489 137.596 C 55.140 136.029,55.253 135.703,56.287 132.409 C 57.187 129.540,57.966 125.824,57.987 124.294 C 57.989 124.124,58.063 123.893,58.151 123.780 C 58.385 123.479,58.340 120.331,58.097 120.033 C 57.983 119.894,57.947 119.628,58.019 119.442 C 58.090 119.257,58.066 119.002,57.967 118.875 C 57.867 118.748,57.788 118.505,57.791 118.336 C 57.800 117.828,57.005 116.201,56.477 115.647 C 55.967 115.112,54.585 114.087,54.494 114.176 C 54.466 114.204,54.420 114.222,54.391 114.216 C 54.207 114.176,51.729 114.133,51.693 114.169 M81.048 122.662 C 80.596 122.753,79.860 123.009,79.413 123.230 C 78.966 123.451,78.481 123.586,78.335 123.530 C 78.188 123.474,78.069 123.513,78.069 123.618 C 78.069 123.722,77.491 124.075,76.785 124.401 C 72.470 126.397,65.103 133.550,62.881 137.901 C 62.724 138.210,62.448 138.629,62.268 138.833 C 61.737 139.436,61.106 140.371,60.712 141.140 C 60.509 141.536,60.287 141.905,60.218 141.962 C 60.149 142.018,59.479 143.285,58.730 144.777 C 57.981 146.269,57.319 147.441,57.260 147.382 C 57.201 147.323,57.087 147.581,57.007 147.957 C 56.928 148.332,56.720 148.801,56.545 148.998 C 56.371 149.196,56.287 149.358,56.359 149.358 C 56.432 149.358,56.315 149.705,56.101 150.128 C 55.409 151.495,54.854 152.821,54.854 153.106 C 54.854 153.259,54.778 153.473,54.685 153.580 C 54.492 153.803,53.620 156.113,53.098 157.781 C 52.904 158.403,52.667 159.011,52.571 159.132 C 52.476 159.254,52.342 159.716,52.274 160.159 C 52.206 160.603,52.026 161.160,51.874 161.397 C 51.722 161.634,51.356 162.744,51.060 163.862 C 47.936 175.687,48.035 182.881,51.366 186.114 C 51.843 186.576,52.365 186.954,52.528 186.954 C 52.690 186.954,52.775 187.033,52.716 187.128 C 52.533 187.425,55.286 187.825,56.497 187.677 C 57.119 187.602,57.835 187.524,58.089 187.504 C 58.344 187.484,58.552 187.393,58.552 187.302 C 58.552 187.210,58.641 187.191,58.751 187.259 C 58.861 187.327,59.211 187.247,59.529 187.083 C 59.847 186.919,60.450 186.720,60.870 186.641 C 61.290 186.562,61.633 186.416,61.633 186.315 C 61.633 186.215,61.738 186.133,61.866 186.133 C 62.621 186.133,66.961 183.455,67.450 182.688 C 67.541 182.544,67.703 182.479,67.809 182.545 C 67.915 182.611,68.002 182.526,68.002 182.358 C 68.002 182.189,68.171 181.998,68.378 181.932 C 68.584 181.867,69.624 180.917,70.689 179.822 C 71.754 178.727,72.694 177.850,72.779 177.873 C 72.863 177.896,72.933 177.776,72.933 177.607 C 72.933 177.437,73.025 177.298,73.138 177.298 C 73.251 177.298,73.344 177.201,73.344 177.082 C 73.344 176.963,73.630 176.570,73.979 176.209 C 74.545 175.624,75.745 173.976,76.331 172.980 C 76.448 172.780,76.675 172.459,76.836 172.265 C 77.136 171.903,77.529 171.268,77.789 170.724 C 77.870 170.555,77.998 170.370,78.074 170.313 C 78.654 169.881,80.475 165.107,80.650 163.559 C 80.972 160.718,78.777 160.202,76.614 162.609 C 75.529 163.816,75.328 164.071,73.535 166.513 C 72.953 167.304,72.280 168.136,72.038 168.362 C 71.795 168.589,71.228 169.235,70.776 169.799 C 69.157 171.817,68.156 172.883,67.204 173.600 C 66.830 173.883,66.371 174.267,66.184 174.453 C 65.753 174.884,62.749 176.496,62.619 176.367 C 62.566 176.313,62.241 176.367,61.899 176.487 C 61.191 176.733,59.579 176.189,59.579 175.703 C 59.579 175.556,59.449 175.387,59.291 175.326 C 59.133 175.265,58.938 175.014,58.859 174.768 C 58.780 174.521,58.684 174.227,58.645 174.114 C 58.404 173.401,58.321 172.701,58.318 171.341 C 58.315 170.493,58.334 169.707,58.358 169.594 C 58.382 169.481,58.425 169.111,58.452 168.772 C 58.480 168.433,58.521 168.110,58.544 168.053 C 58.567 167.997,58.611 167.766,58.642 167.540 C 58.789 166.461,59.006 165.538,59.527 163.773 L 60.092 161.856 61.222 161.485 C 63.446 160.756,68.132 159.258,69.646 158.793 C 70.493 158.533,71.235 158.250,71.294 158.166 C 71.352 158.081,71.630 157.965,71.910 157.907 C 72.190 157.849,72.604 157.757,72.830 157.701 C 73.496 157.538,77.704 156.104,78.408 155.800 C 78.764 155.647,79.129 155.521,79.219 155.521 C 79.506 155.521,82.161 153.665,82.346 153.336 C 82.443 153.162,82.599 153.051,82.693 153.089 C 82.903 153.175,85.054 150.386,85.054 150.028 C 85.054 149.885,85.128 149.769,85.218 149.769 C 85.308 149.769,85.506 149.422,85.657 148.998 C 85.808 148.575,86.151 147.772,86.418 147.214 C 86.685 146.656,86.903 146.078,86.903 145.930 C 86.903 145.781,87.001 145.660,87.120 145.660 C 87.240 145.660,87.290 145.583,87.232 145.488 C 87.089 145.257,87.544 143.811,87.759 143.811 C 87.853 143.811,87.930 143.591,87.930 143.323 C 87.930 143.055,88.069 142.443,88.238 141.964 C 88.931 139.998,89.590 135.026,89.557 131.998 C 89.520 128.573,89.042 126.251,88.189 125.358 C 88.047 125.208,87.930 125.017,87.930 124.932 C 87.930 124.611,86.772 123.526,86.133 123.250 C 85.765 123.091,85.465 122.906,85.465 122.840 C 85.465 122.687,85.292 122.664,83.410 122.571 C 82.563 122.530,81.500 122.570,81.048 122.662 M45.765 128.865 C 46.928 130.107,46.988 132.904,45.928 136.476 C 44.973 139.694,43.631 142.859,43.060 143.243 C 42.927 143.332,42.919 143.398,43.041 143.403 C 43.154 143.409,43.067 143.549,42.847 143.715 C 42.628 143.881,42.516 144.016,42.599 144.016 C 42.757 144.016,42.516 144.348,41.757 145.175 C 41.502 145.452,41.294 145.719,41.294 145.768 C 41.294 146.711,35.118 151.095,33.282 151.455 C 33.112 151.488,32.928 151.574,32.871 151.646 C 32.700 151.862,23.876 154.905,23.419 154.905 C 23.270 154.905,23.712 153.412,23.993 152.964 C 24.068 152.845,24.103 152.586,24.070 152.388 C 24.038 152.191,24.104 152.029,24.217 152.029 C 24.330 152.029,24.417 151.867,24.410 151.669 C 24.403 151.471,24.677 150.524,25.018 149.563 C 25.359 148.603,26.065 146.430,26.587 144.735 C 27.108 143.041,27.907 140.544,28.362 139.188 C 28.817 137.833,29.191 136.561,29.194 136.364 C 29.196 136.166,29.291 136.004,29.403 136.004 C 29.516 136.004,29.555 135.918,29.490 135.813 C 29.425 135.708,29.634 134.961,29.954 134.154 L 30.537 132.686 32.885 131.865 C 34.177 131.413,35.372 131.006,35.542 130.958 C 35.922 130.853,38.394 129.955,38.864 129.752 C 39.053 129.670,39.331 129.579,39.481 129.548 C 39.631 129.517,39.938 129.413,40.164 129.316 C 42.400 128.357,45.086 128.141,45.765 128.865 M78.260 134.525 C 79.855 135.316,80.445 139.005,79.592 142.855 C 79.438 143.550,79.200 144.628,79.063 145.249 C 78.715 146.820,78.306 147.758,78.040 147.594 C 77.917 147.518,77.758 147.550,77.686 147.664 C 77.614 147.778,76.122 148.308,74.371 148.842 C 71.458 149.729,67.941 150.858,67.180 151.150 C 67.011 151.215,66.691 151.303,66.470 151.346 C 66.249 151.388,66.018 151.499,65.957 151.592 C 65.895 151.686,65.614 151.814,65.331 151.878 C 65.049 151.942,64.390 152.133,63.867 152.302 L 62.917 152.610 63.401 151.701 C 63.667 151.201,63.897 150.723,63.913 150.640 C 63.962 150.386,64.273 149.610,64.710 148.650 C 64.939 148.148,65.126 147.686,65.126 147.625 C 65.126 147.351,67.226 143.290,67.400 143.228 C 67.507 143.191,67.541 143.075,67.478 142.972 C 67.414 142.868,67.459 142.784,67.579 142.784 C 67.699 142.784,67.797 142.648,67.797 142.483 C 67.797 142.317,68.074 141.866,68.413 141.480 C 68.752 141.094,69.029 140.674,69.029 140.548 C 69.029 140.422,69.122 140.318,69.235 140.318 C 69.348 140.318,69.440 140.202,69.440 140.060 C 69.440 139.917,69.625 139.685,69.851 139.544 C 70.077 139.403,70.262 139.170,70.262 139.026 C 70.262 138.642,72.449 136.595,73.754 135.757 C 75.116 134.884,76.220 134.307,76.220 134.468 C 76.220 134.533,76.382 134.492,76.579 134.377 C 77.078 134.087,77.442 134.119,78.260 134.525 " stroke="none" fill="#fcc414" fill-rule="evenodd"></path><path id="path1" d="" stroke="none" fill="#100c414" fill-rule="evenodd"></path></g></svg>